<svg width="55" height="21" viewBox="0 0 55 21" fill="none" xmlns="http://www.w3.org/2000/svg">
<path d="M49.4277 0.52832C49.8961 0.481232 50.3021 0.486964 50.8691 0.594727L51.1553 0.661133C51.2517 0.686661 51.3455 0.714306 51.4248 0.738281C51.506 0.762839 51.577 0.785235 51.6279 0.801758C51.6532 0.809964 51.6741 0.816504 51.6885 0.821289C51.6957 0.823687 51.7021 0.825813 51.7061 0.827148C51.7077 0.827716 51.7089 0.82875 51.71 0.829102H51.7119V0.830078C51.7105 0.834224 51.6988 0.868855 51.6006 1.1582L51.7129 0.830078L51.7236 0.833008L51.7344 0.837891L52.2881 1.05469L52.2969 1.05859L52.3066 1.0625L52.3086 1.06348C52.3098 1.064 52.3115 1.06455 52.3135 1.06543C52.318 1.06741 52.3247 1.07055 52.333 1.07422C52.3495 1.08154 52.3731 1.0923 52.4023 1.10547C52.4613 1.132 52.5437 1.16922 52.6367 1.21289C52.8191 1.29853 53.0571 1.41407 53.2432 1.52148L53.4795 1.66699C53.5596 1.71831 53.6378 1.77018 53.7051 1.81543C53.7734 1.8614 53.8333 1.90211 53.876 1.93164C53.8973 1.94638 53.9148 1.95846 53.9268 1.9668C53.9326 1.97086 53.9372 1.9743 53.9404 1.97656C53.942 1.97769 53.9435 1.97887 53.9443 1.97949L53.9453 1.98047H53.9463L53.9541 1.98633L53.9629 1.99316L53.9639 1.99414L53.9658 1.99512L53.9854 2.01074C53.9972 2.02036 54.0136 2.03363 54.0322 2.0498C54.0691 2.08178 54.1188 2.12864 54.1719 2.18457C54.2456 2.26231 54.3907 2.42528 54.458 2.63867L54.4824 2.73242L54.4971 2.8457C54.4998 2.88043 54.5006 2.91253 54.5 2.94238L54.4873 3.09863C54.448 3.43725 54.2506 3.69733 54.1084 3.85352C54.0322 3.93718 53.956 4.0075 53.8965 4.06055C53.8678 4.08614 53.8392 4.11136 53.8203 4.12793C53.8103 4.13672 53.8021 4.14383 53.7959 4.14941C53.7929 4.15216 53.7898 4.15468 53.7881 4.15625L53.7861 4.1582C53.7143 4.22862 53.4726 4.4352 53.2744 4.60352C53.17 4.6922 53.0688 4.77784 52.9941 4.84082C52.9569 4.87219 52.9258 4.89795 52.9043 4.91602C52.8936 4.925 52.8856 4.93268 52.8799 4.9375C52.8787 4.93851 52.8769 4.93864 52.876 4.93945L50.9033 6.76465L50.9043 6.76562L48.2432 9.37207L48.2402 9.37598L41.8105 15.5674L40.1602 17.1836H40.1611C40.1575 17.1874 40.1521 17.1932 40.1455 17.2002C40.1319 17.2147 40.1114 17.236 40.0869 17.2617C40.038 17.313 39.9696 17.3847 39.8906 17.4648C39.813 17.5436 39.7223 17.6333 39.6289 17.7227L39.3486 17.9775C39.1731 18.1268 39.0276 18.2381 38.8828 18.3418L38.4209 18.6602C38.2975 18.7449 38.196 18.8171 38.0889 18.8887L37.7236 19.1162C37.5376 19.2236 37.2995 19.3392 37.1172 19.4248C37.0242 19.4685 36.9418 19.5057 36.8828 19.5322C36.8535 19.5454 36.83 19.5562 36.8135 19.5635C36.8052 19.5672 36.7984 19.5703 36.7939 19.5723C36.791 19.5737 36.7872 19.5752 36.7832 19.5771C36.7694 19.5838 36.7501 19.5939 36.7256 19.6055C36.6763 19.6287 36.6066 19.6606 36.5264 19.6963C36.4479 19.7312 36.3556 19.7715 36.2588 19.8105L35.9658 19.9189C35.7159 20.0006 35.4575 20.0849 35.1484 20.1699L34.8213 20.2549C34.4346 20.3496 34.0056 20.4554 33.4883 20.4805L33.2607 20.4863H31.4873C31.2765 20.4863 31.0479 20.4535 30.8867 20.4248C30.8033 20.4099 30.7312 20.395 30.6797 20.3838C30.6538 20.3782 30.632 20.3726 30.6172 20.3691C30.61 20.3675 30.6038 20.3662 30.5996 20.3652C30.5976 20.3648 30.596 20.3646 30.5947 20.3643L30.5938 20.3633L30.0605 20.2598H30.0586C30.0573 20.2595 30.055 20.2592 30.0527 20.2588C30.0483 20.2579 30.0421 20.2565 30.0342 20.2549C30.0175 20.2515 29.9926 20.2464 29.9629 20.2402C29.9036 20.2279 29.8209 20.2096 29.7275 20.1885C29.5452 20.1472 29.3048 20.0892 29.1152 20.0273C28.8608 19.9442 28.5807 19.8498 28.2676 19.7158L27.9434 19.5674C27.7698 19.4832 27.5621 19.3672 27.4053 19.2764C27.3254 19.2302 27.2559 19.188 27.2061 19.1582C27.1813 19.1434 27.1613 19.1314 27.1475 19.123C27.1464 19.1224 27.1455 19.1217 27.1445 19.1211L27.1426 19.1201C27.1414 19.1195 27.1398 19.1183 27.1377 19.1172C27.1332 19.1147 27.1265 19.1111 27.1182 19.1064C27.1014 19.0971 27.0776 19.0832 27.0479 19.0664C26.9886 19.033 26.9057 18.9864 26.8125 18.9316C26.721 18.8779 26.6152 18.8144 26.5098 18.748L26.2061 18.5459C26.0047 18.4008 25.7975 18.2262 25.626 18.0742L25.2617 17.7363L24.2646 16.7588L24.2422 16.7383L24.2256 16.7158H24.2246V16.7148H24.2236V16.7139L24.2217 16.7119C24.2181 16.7077 24.2122 16.7004 24.2041 16.6914C24.187 16.6725 24.1628 16.6477 24.1357 16.623C24.1076 16.5975 24.0829 16.578 24.0645 16.5664C24.0627 16.5653 24.061 16.5643 24.0596 16.5635C24.0586 16.5636 24.0573 16.5641 24.0557 16.5645C24.0514 16.568 24.045 16.5737 24.0361 16.582C24.0279 16.5898 24.0186 16.5988 24.0068 16.6104L23.958 16.6592C23.9527 16.6649 23.9458 16.6723 23.9375 16.6816C23.9204 16.7009 23.8992 16.7254 23.875 16.7539C23.8264 16.8111 23.7696 16.8801 23.7119 16.9502C23.6553 17.019 23.5961 17.0906 23.5479 17.1484L23.4121 17.3018L23.0635 17.6426C22.9442 17.7496 22.8382 17.8307 22.7441 17.9004L22.4932 18.0918C22.3727 18.191 22.2057 18.3273 22.0693 18.4385C22.0011 18.4941 21.9402 18.5435 21.8965 18.5791C21.8747 18.5969 21.8569 18.6112 21.8447 18.6211C21.8387 18.626 21.8333 18.6302 21.8301 18.6328C21.8287 18.6339 21.8279 18.6351 21.8271 18.6357H21.8262V18.6367H21.8252L21.8057 18.6523L21.7842 18.667L21.1182 19.1016L21.1172 19.1025C21.1164 19.1031 21.1147 19.1036 21.1133 19.1045C21.1104 19.1063 21.1066 19.1091 21.1016 19.1123C21.0912 19.119 21.0769 19.129 21.0586 19.1406C21.0221 19.1639 20.9706 19.1956 20.9121 19.2314C20.8556 19.266 20.7883 19.3059 20.7188 19.3457L20.5107 19.458L19.8457 19.7832C19.6931 19.858 19.49 19.9229 19.3506 19.9639C19.2761 19.9858 19.2093 20.0039 19.1611 20.0166C19.1369 20.023 19.1165 20.0277 19.1025 20.0312C19.1008 20.0317 19.0992 20.0318 19.0977 20.0322V20.0332H19.0967C19.0927 20.0342 19.0895 20.0355 19.0869 20.0361C19.0851 20.0366 19.0832 20.0368 19.082 20.0371L19.0137 20.0566C18.9614 20.0715 18.8884 20.0924 18.8076 20.1152L18.3145 20.252C17.8524 20.3764 17.3832 20.4628 17.0088 20.4824L16.8545 20.4863H15.6348C15.5131 20.4864 15.2214 20.504 14.9102 20.499L14.5977 20.4854C14.3247 20.4638 13.9951 20.4038 13.7471 20.3535C13.6203 20.3278 13.5091 20.3032 13.4297 20.2852C13.3901 20.2762 13.3582 20.2689 13.3359 20.2637C13.3248 20.261 13.3156 20.2593 13.3096 20.2578C13.3066 20.2571 13.3044 20.2563 13.3027 20.2559L13.3008 20.2549H13.2998L13.291 20.2529L13.2832 20.251L12.5205 20.0371L12.5166 20.0361C12.5127 20.0352 12.5069 20.033 12.5 20.0312C12.486 20.0277 12.4657 20.023 12.4414 20.0166C12.3932 20.0039 12.3265 19.9858 12.252 19.9639C12.1474 19.9331 12.0068 19.8894 11.8789 19.8379L11.7568 19.7832L10.4268 19.1318C10.2785 19.0592 10.0839 18.93 9.94824 18.8369C9.87549 18.787 9.80966 18.7416 9.7627 18.708C9.73918 18.6912 9.72039 18.6767 9.70703 18.667C9.70051 18.6623 9.69505 18.6589 9.69141 18.6562C9.68962 18.6549 9.68852 18.6531 9.6875 18.6523L9.68555 18.6514L9.67871 18.6465L9.67578 18.6436C9.67389 18.6421 9.67061 18.6405 9.66699 18.6377C9.65961 18.6321 9.64854 18.6238 9.63477 18.6133C9.60711 18.5922 9.56738 18.5611 9.51953 18.5244C9.42395 18.4512 9.29535 18.3523 9.16309 18.25C9.03097 18.1478 8.89367 18.0415 8.78223 17.9531L8.52344 17.7363L1.65039 11.002L1.28613 10.6445L1.65039 10.2881L1.76074 10.1787L1.76855 10.1709L1.77637 10.1641C3.18982 8.89469 4.60477 8.33774 5.96191 8.27148C7.31003 8.20573 8.54949 8.6267 9.61914 9.21973C10.6879 9.81226 11.6099 10.5889 12.332 11.2695C12.6938 11.6105 13.0094 11.9316 13.2676 12.1934C13.5319 12.4614 13.7182 12.6489 13.8457 12.7559C13.8492 12.7586 13.8538 12.7623 13.8594 12.7666C13.8742 12.7781 13.8961 12.795 13.9229 12.8154C13.9765 12.8565 14.0501 12.9121 14.1299 12.9707C14.305 13.0994 14.4613 13.2063 14.5244 13.2373C14.5237 13.2368 14.5666 13.2533 14.6768 13.2773C14.7769 13.2992 14.9032 13.3207 15.043 13.3398C15.325 13.3785 15.6341 13.4033 15.8564 13.4033L15.9873 13.3994C16.3015 13.3796 16.6768 13.2893 17.1104 13.1143L17.2637 13.0449C17.6221 12.867 17.9806 12.578 18.2959 12.2773C18.4717 12.1097 18.6265 11.9462 18.7529 11.8086C18.8671 11.6843 18.9859 11.5489 19.0537 11.4824L24.2832 6.48145C25.5649 5.25943 26.8505 4.0364 27.8369 3.10547C28.33 2.64012 28.7499 2.24611 29.0566 1.96191C29.2096 1.82021 29.3364 1.7047 29.4307 1.62012C29.4776 1.57797 29.5187 1.54096 29.5518 1.5127C29.5756 1.49234 29.6203 1.45506 29.6621 1.42773L29.8506 1.31738C30.3643 1.04474 31.3849 0.685607 32.8955 0.586914L33.2188 0.571289C34.7889 0.527407 35.6622 0.945032 35.9199 1.07129L36.0781 1.1582C36.2821 1.27559 36.6065 1.47804 36.9102 1.70117C37.1138 1.8508 37.3268 2.02311 37.4941 2.19727C37.5776 2.28414 37.6619 2.38409 37.7275 2.49219C37.7892 2.59371 37.8623 2.74766 37.8623 2.93262C37.8623 3.03335 37.833 3.1117 37.8184 3.14746C37.8009 3.19002 37.7808 3.2262 37.7646 3.25293C37.7322 3.30652 37.6931 3.35974 37.6553 3.40723C37.578 3.50417 37.4725 3.62196 37.3496 3.75195C37.1018 4.01407 36.7525 4.35925 36.3408 4.75586C35.516 5.55041 34.4176 6.57172 33.3242 7.58887C32.2284 8.60829 31.1375 9.62392 30.3203 10.4111C29.9111 10.8054 29.5758 11.1373 29.3447 11.3818C29.2696 11.4613 29.2097 11.5293 29.1621 11.584C29.1644 11.5874 29.1664 11.5912 29.1689 11.5947C29.2379 11.6923 29.3395 11.8047 29.4541 11.917C29.5664 12.027 29.6807 12.1267 29.7676 12.1992C29.8104 12.235 29.8457 12.2638 29.8701 12.2832C29.8823 12.2929 29.8924 12.3 29.8984 12.3047C29.9011 12.3068 29.903 12.3086 29.9043 12.3096L29.9062 12.3105C29.9105 12.3135 29.9152 12.3173 29.9209 12.3213C29.9422 12.336 29.9739 12.3573 30.0127 12.3838C30.0904 12.4367 30.1982 12.5097 30.3193 12.5889C30.5687 12.7518 30.8509 12.9259 31.042 13.0195C31.4642 13.2264 31.7525 13.347 32.2178 13.4082L32.4561 13.4355C32.6704 13.4551 32.8287 13.4495 33.0684 13.4102L33.0713 13.4092L33.4141 13.3477C33.4937 13.3298 33.5484 13.3122 33.6074 13.2861C33.7383 13.2283 33.8998 13.1238 34.2822 12.8564C34.287 12.8519 34.2937 12.8466 34.3008 12.8398C34.3289 12.813 34.3694 12.7739 34.4219 12.7227C34.5271 12.6199 34.6764 12.4729 34.8613 12.29C35.2314 11.9242 35.7422 11.4174 36.3281 10.8369C37.4989 9.67701 38.9686 8.22428 40.2031 7.02734L40.2861 6.94629L41.6973 5.58008C42.7806 4.53436 43.0206 4.3207 43.6885 3.74805L44.3799 3.16699C44.6096 2.97721 44.8317 2.79616 45.0254 2.63965C45.2193 2.48296 45.3853 2.34957 45.5029 2.25586C45.5617 2.20908 45.6085 2.17189 45.6406 2.14648C45.6566 2.13384 45.6693 2.12381 45.6777 2.11719C45.6818 2.11401 45.6854 2.11202 45.6875 2.11035L45.6904 2.10742L45.6982 2.10156L46.7051 1.33887L46.7432 1.30957L46.7871 1.28809L47.2305 1.07129L47.3545 1.01562C47.6928 0.876333 48.3462 0.674908 48.9307 0.59082L49.4277 0.52832Z" fill="#27C1A7" stroke="black"/>
</svg>


