<svg width="31" height="31" viewBox="0 0 31 31" fill="none" xmlns="http://www.w3.org/2000/svg">
<mask id="mask0_63_273" style="mask-type:luminance" maskUnits="userSpaceOnUse" x="0" y="0" width="31" height="31">
<path d="M30.3704 0H0V30.5H30.3704V0Z" fill="white"/>
</mask>
<g mask="url(#mask0_63_273)">
<path d="M29.763 15.5966C29.763 14.5152 29.6664 13.4755 29.4869 12.4772H15.1852V18.3762H23.3575C23.0056 20.2825 21.9358 21.8976 20.3275 22.979V26.8054H25.235C28.1064 24.1505 29.763 20.2409 29.763 15.5966Z" fill="#4285F4"/>
<path d="M15.1852 30.5C19.2852 30.5 22.7225 29.1344 25.2349 26.8054L20.3274 22.979C18.9677 23.894 17.2282 24.4346 15.1852 24.4346C11.2301 24.4346 7.88249 21.752 6.68833 18.1475H1.61511V22.0986C4.11383 27.0826 9.24916 30.5 15.1852 30.5Z" fill="#34A853"/>
<path d="M6.68831 18.1475C6.38461 17.2325 6.21211 16.2551 6.21211 15.25C6.21211 14.2449 6.38461 13.2675 6.68831 12.3525V8.40137H1.6151C0.586755 10.4601 0 12.7892 0 15.25C0 17.7107 0.586755 20.0399 1.6151 22.0986L6.68831 18.1475Z" fill="#FBBC04"/>
<path d="M15.1852 6.06538C17.4145 6.06538 19.4163 6.83474 20.99 8.34587L25.3455 3.97186C22.7157 1.51112 19.2782 0 15.1852 0C9.24916 0 4.11383 3.41737 1.61511 8.40138L6.68833 12.3525C7.88249 8.74801 11.2301 6.06538 15.1852 6.06538Z" fill="#E94235"/>
</g>
</svg>
