<svg width="282" height="60" viewBox="0 0 282 60" fill="none" xmlns="http://www.w3.org/2000/svg">
<path d="M24.3503 33.4711C22.6726 32.0742 15.934 23.1842 8.48895 29.8567L8.33496 30.0074L17.8825 39.3442C18.0366 39.4949 19.4226 40.5489 19.4226 40.5489C19.4226 40.5489 20.0385 41.0007 20.3465 41.1513L22.1944 42.0549C22.5023 42.2055 23.1184 42.356 23.1184 42.356L24.1963 42.6573C24.1963 42.6573 25.2201 42.9057 25.8902 42.9584C26.4298 43.0008 26.9682 42.9584 27.2762 42.9584H28.9701C29.4322 42.9584 30.1126 42.8468 30.818 42.6573C31.1849 42.5587 31.896 42.356 31.896 42.356C31.896 42.356 32.5119 42.2055 32.8199 42.0549L33.744 41.6031C34.052 41.4526 34.5139 41.1513 34.5139 41.1513L35.4379 40.5489C35.4379 40.5489 36.0297 40.0687 36.3619 39.796C36.6223 39.5821 36.8478 39.4479 37.1319 39.1936C37.32 39.0252 37.4911 38.8423 37.5938 38.7418C37.6964 38.6414 38.2097 37.9889 38.3638 37.8383C38.5177 37.6877 38.6136 37.5807 38.8257 37.537C38.9435 37.5129 39.0154 37.5161 39.1337 37.537C39.4296 37.5897 39.7498 37.9889 39.7498 37.9889L41.1356 39.3442C41.2896 39.4949 41.8525 40.0281 42.3676 40.3984C42.8247 40.7269 43.5995 41.1513 43.5995 41.1513C43.5995 41.1513 44.243 41.5432 44.6775 41.7537C45.2579 42.0348 45.7555 42.2055 46.2174 42.356C46.6795 42.5066 47.4495 42.6573 47.4495 42.6573L48.2193 42.8079C48.2193 42.8079 48.8353 42.9584 49.2973 42.9584H51.7613C52.5312 42.9584 53.1471 42.8079 53.7632 42.6573C54.3792 42.5066 54.8411 42.356 55.3031 42.2055C55.7651 42.0549 56.3811 41.7537 56.3811 41.7537C56.3811 41.7537 57.1496 41.4183 57.613 41.1513C57.9867 40.936 58.1819 40.7924 58.5369 40.5489C59.0294 40.2115 59.3147 40.0308 59.769 39.6454C60.2185 39.2638 60.8468 38.5912 60.8468 38.5912L63.1567 36.3323L72.0885 27.7486L75.7842 24.1344L78.5562 21.5743C78.5562 21.5743 79.6341 20.6707 79.7881 20.5201C79.9421 20.3696 80.4997 19.9686 80.5581 19.4659C80.5717 19.3491 80.5796 19.2806 80.5581 19.1648C80.5043 18.8755 80.096 18.5624 80.096 18.5624C80.096 18.5624 79.5458 18.1754 79.1721 17.9601C78.7087 17.6931 77.9402 17.3577 77.9402 17.3577L77.1702 17.0566C77.1702 17.0566 76.522 16.8368 76.0922 16.7553C75.1477 16.5762 74.5804 16.6186 73.6284 16.7553C72.762 16.8797 71.7804 17.2071 71.4724 17.3577L70.8564 17.6589C70.8564 17.6589 71.5034 17.343 70.2694 17.9459C69.0354 18.5489 67.9306 19.9178 66.6987 20.9719C65.4807 22.0141 65.3163 22.1731 62.0043 25.3779L61.8887 25.4897C58.4647 28.8028 53.7318 33.536 53.6092 33.6217C52.533 34.3735 52.4567 34.386 51.6113 34.5246L51.6072 34.5253C51.0734 34.6128 50.7578 34.5957 50.2213 34.5253C49.4674 34.4262 48.9894 34.2241 48.3734 33.9229C47.7574 33.6217 46.6795 32.8687 46.6795 32.8687C46.6795 32.8687 45.2935 31.8146 45.2935 31.2122C45.2935 30.6098 57.4589 19.9177 57.4589 19.3154C57.4589 18.713 55.457 17.5082 55.149 17.3577C54.8411 17.2071 53.6092 16.6048 51.2993 16.7553C48.9894 16.9059 47.6034 17.5082 47.1414 17.8095C46.6795 18.1106 32.8199 31.3627 32.5119 31.664C32.204 31.9651 30.9672 33.5169 29.5861 34.0735C28.8443 34.3724 28.1712 34.5252 27.5842 34.5252C26.8858 34.5253 25.7363 34.3746 25.4283 34.2241C25.1204 34.0735 24.3503 33.4711 24.3503 33.4711Z" fill="#27C1A7"/>
<path d="M104.569 43L96.3252 17.8H102.373L109.537 40.12H106.513L114.001 17.8H119.401L126.601 40.12H123.685L131.029 17.8H136.609L128.365 43H122.101L115.729 23.416H117.385L110.833 43H104.569ZM151.768 23.344C153.304 23.344 154.672 23.656 155.872 24.28C157.096 24.88 158.056 25.816 158.752 27.088C159.448 28.336 159.796 29.944 159.796 31.912V43H154.18V32.776C154.18 31.216 153.832 30.064 153.136 29.32C152.464 28.576 151.504 28.204 150.256 28.204C149.368 28.204 148.564 28.396 147.844 28.78C147.148 29.14 146.596 29.704 146.188 30.472C145.804 31.24 145.612 32.224 145.612 33.424V43H139.996V16.288H145.612V28.996L144.352 27.376C145.048 26.08 146.044 25.084 147.34 24.388C148.636 23.692 150.112 23.344 151.768 23.344ZM176.767 43V39.22L176.407 38.392V31.624C176.407 30.424 176.035 29.488 175.291 28.816C174.571 28.144 173.455 27.808 171.943 27.808C170.911 27.808 169.891 27.976 168.883 28.312C167.899 28.624 167.059 29.056 166.363 29.608L164.347 25.684C165.403 24.94 166.675 24.364 168.163 23.956C169.651 23.548 171.163 23.344 172.699 23.344C175.651 23.344 177.943 24.04 179.575 25.432C181.207 26.824 182.023 28.996 182.023 31.948V43H176.767ZM170.863 43.288C169.351 43.288 168.055 43.036 166.975 42.532C165.895 42.004 165.067 41.296 164.491 40.408C163.915 39.52 163.627 38.524 163.627 37.42C163.627 36.268 163.903 35.26 164.455 34.396C165.031 33.532 165.931 32.86 167.155 32.38C168.379 31.876 169.975 31.624 171.943 31.624H177.091V34.9H172.555C171.235 34.9 170.323 35.116 169.819 35.548C169.339 35.98 169.099 36.52 169.099 37.168C169.099 37.888 169.375 38.464 169.927 38.896C170.503 39.304 171.283 39.508 172.267 39.508C173.203 39.508 174.043 39.292 174.787 38.86C175.531 38.404 176.071 37.744 176.407 36.88L177.271 39.472C176.863 40.72 176.119 41.668 175.039 42.316C173.959 42.964 172.567 43.288 170.863 43.288ZM196.354 50.272C194.53 50.272 192.766 50.044 191.062 49.588C189.382 49.156 187.978 48.496 186.85 47.608L189.082 43.576C189.898 44.248 190.93 44.776 192.178 45.16C193.45 45.568 194.698 45.772 195.922 45.772C197.914 45.772 199.354 45.328 200.242 44.44C201.154 43.552 201.61 42.232 201.61 40.48V37.564L201.97 32.704L201.898 27.808V23.632H207.226V39.76C207.226 43.36 206.29 46.012 204.418 47.716C202.546 49.42 199.858 50.272 196.354 50.272ZM195.49 42.064C193.69 42.064 192.058 41.68 190.594 40.912C189.154 40.12 187.99 39.028 187.102 37.636C186.238 36.22 185.806 34.576 185.806 32.704C185.806 30.808 186.238 29.164 187.102 27.772C187.99 26.356 189.154 25.264 190.594 24.496C192.058 23.728 193.69 23.344 195.49 23.344C197.122 23.344 198.562 23.68 199.81 24.352C201.058 25 202.03 26.02 202.726 27.412C203.422 28.78 203.77 30.544 203.77 32.704C203.77 34.84 203.422 36.604 202.726 37.996C202.03 39.364 201.058 40.384 199.81 41.056C198.562 41.728 197.122 42.064 195.49 42.064ZM196.606 37.456C197.59 37.456 198.466 37.264 199.234 36.88C200.002 36.472 200.602 35.908 201.034 35.188C201.466 34.468 201.682 33.64 201.682 32.704C201.682 31.744 201.466 30.916 201.034 30.22C200.602 29.5 200.002 28.948 199.234 28.564C198.466 28.156 197.59 27.952 196.606 27.952C195.622 27.952 194.746 28.156 193.978 28.564C193.21 28.948 192.598 29.5 192.142 30.22C191.71 30.916 191.494 31.744 191.494 32.704C191.494 33.64 191.71 34.468 192.142 35.188C192.598 35.908 193.21 36.472 193.978 36.88C194.746 37.264 195.622 37.456 196.606 37.456ZM221.669 43.288C219.605 43.288 217.769 42.856 216.161 41.992C214.577 41.128 213.317 39.952 212.381 38.464C211.469 36.952 211.013 35.236 211.013 33.316C211.013 31.372 211.469 29.656 212.381 28.168C213.317 26.656 214.577 25.48 216.161 24.64C217.769 23.776 219.605 23.344 221.669 23.344C223.709 23.344 225.533 23.776 227.141 24.64C228.749 25.48 230.009 26.644 230.921 28.132C231.833 29.62 232.289 31.348 232.289 33.316C232.289 35.236 231.833 36.952 230.921 38.464C230.009 39.952 228.749 41.128 227.141 41.992C225.533 42.856 223.709 43.288 221.669 43.288ZM221.669 38.68C222.605 38.68 223.445 38.464 224.189 38.032C224.933 37.6 225.521 36.988 225.953 36.196C226.385 35.38 226.601 34.42 226.601 33.316C226.601 32.188 226.385 31.228 225.953 30.436C225.521 29.644 224.933 29.032 224.189 28.6C223.445 28.168 222.605 27.952 221.669 27.952C220.733 27.952 219.893 28.168 219.149 28.6C218.405 29.032 217.805 29.644 217.349 30.436C216.917 31.228 216.701 32.188 216.701 33.316C216.701 34.42 216.917 35.38 217.349 36.196C217.805 36.988 218.405 37.6 219.149 38.032C219.893 38.464 220.733 38.68 221.669 38.68ZM247.815 23.344C249.351 23.344 250.719 23.656 251.919 24.28C253.143 24.88 254.103 25.816 254.799 27.088C255.495 28.336 255.843 29.944 255.843 31.912V43H250.227V32.776C250.227 31.216 249.879 30.064 249.183 29.32C248.511 28.576 247.551 28.204 246.303 28.204C245.415 28.204 244.611 28.396 243.891 28.78C243.195 29.14 242.643 29.704 242.235 30.472C241.851 31.24 241.659 32.224 241.659 33.424V43H236.043V23.632H241.407V28.996L240.399 27.376C241.095 26.08 242.091 25.084 243.387 24.388C244.683 23.692 246.159 23.344 247.815 23.344ZM267.45 43.288C265.794 43.288 264.198 43.096 262.662 42.712C261.15 42.304 259.95 41.8 259.062 41.2L260.934 37.168C261.822 37.72 262.866 38.176 264.066 38.536C265.29 38.872 266.49 39.04 267.666 39.04C268.962 39.04 269.874 38.884 270.402 38.572C270.954 38.26 271.23 37.828 271.23 37.276C271.23 36.82 271.014 36.484 270.582 36.268C270.174 36.028 269.622 35.848 268.926 35.728C268.23 35.608 267.462 35.488 266.622 35.368C265.806 35.248 264.978 35.092 264.138 34.9C263.298 34.684 262.53 34.372 261.834 33.964C261.138 33.556 260.574 33.004 260.142 32.308C259.734 31.612 259.53 30.712 259.53 29.608C259.53 28.384 259.878 27.304 260.574 26.368C261.294 25.432 262.326 24.7 263.67 24.172C265.014 23.62 266.622 23.344 268.494 23.344C269.814 23.344 271.158 23.488 272.526 23.776C273.894 24.064 275.034 24.484 275.946 25.036L274.074 29.032C273.138 28.48 272.19 28.108 271.23 27.916C270.294 27.7 269.382 27.592 268.494 27.592C267.246 27.592 266.334 27.76 265.758 28.096C265.182 28.432 264.894 28.864 264.894 29.392C264.894 29.872 265.098 30.232 265.506 30.472C265.938 30.712 266.502 30.904 267.198 31.048C267.894 31.192 268.65 31.324 269.466 31.444C270.306 31.54 271.146 31.696 271.986 31.912C272.826 32.128 273.582 32.44 274.254 32.848C274.95 33.232 275.514 33.772 275.946 34.468C276.378 35.14 276.594 36.028 276.594 37.132C276.594 38.332 276.234 39.4 275.514 40.336C274.794 41.248 273.75 41.968 272.382 42.496C271.038 43.024 269.394 43.288 267.45 43.288Z" fill="#1A6C5D"/>
</svg>
